<svg xmlns="http://www.w3.org/2000/svg" viewBox="0 0 1280 768" width="1280" height="768">
	<style>
		tspan { white-space:pre }
		.shp0 { fill: #ffffff } 
		.shp1 { fill: #000000 } 
	</style>
	<path id="Forme 1" class="shp0" d="M-23 -64L1427 -64L1427 886L-23 886L-23 -64Z" />
	<path id="Layer" fill-rule="evenodd" class="shp1" d="M94.09 462.78C94.09 449.17 104.33 437.94 117.49 436.29L117.49 285.98C103.19 272.07 94.28 252.65 94.28 231.17L94.28 200.08C94.28 200.03 94.29 199.98 94.29 199.94C94.29 199.8 94.31 199.67 94.31 199.55C94.33 199.01 94.36 198.48 94.43 197.95C94.45 197.78 94.48 197.62 94.51 197.45C94.59 196.95 94.68 196.45 94.8 195.96C94.84 195.8 94.88 195.65 94.92 195.5C95.07 194.95 95.24 194.4 95.45 193.88C95.48 193.81 95.49 193.75 95.51 193.69L95.6 193.47C95.62 193.42 95.64 193.36 95.67 193.32L128.27 111.5C133.2 99.14 144.97 91.17 158.27 91.17L236.31 91.17C245.84 91.17 253.57 98.89 253.57 108.42C253.57 117.96 245.84 125.69 236.31 125.69L159.78 125.69L137.01 182.82L678.64 182.82L655.86 125.69L316.63 125.69C307.08 125.69 299.36 117.96 299.36 108.42C299.36 98.89 307.08 91.17 316.63 91.17L657.38 91.17C670.68 91.17 682.45 99.15 687.37 111.5L719.99 193.34C720 193.36 720.01 193.38 720.03 193.41L720.13 193.69C720.16 193.77 720.18 193.85 720.21 193.93C720.4 194.43 720.58 194.95 720.72 195.47C720.76 195.65 720.81 195.82 720.85 196C720.96 196.46 721.05 196.93 721.13 197.41C721.16 197.59 721.2 197.79 721.22 197.99C721.28 198.47 721.3 198.95 721.32 199.44C721.33 199.62 721.35 199.79 721.35 199.96C721.35 200 721.36 200.03 721.36 200.08L721.36 231.17C721.36 247.65 716.11 262.92 707.21 275.42L707.21 436.36C720.14 438.22 730.12 449.34 730.12 462.78L730.12 505.06C730.12 519.79 718.14 531.77 703.41 531.77L120.81 531.77C106.08 531.77 94.09 519.79 94.09 505.06L94.09 462.78ZM602.85 231.17C602.85 254.33 621.68 273.17 644.85 273.17C668 273.17 686.83 254.33 686.83 231.17L686.83 217.34L602.85 217.34L602.85 231.17ZM484.34 231.17C484.34 254.33 503.17 273.17 526.33 273.17C549.49 273.17 568.32 254.33 568.32 231.17L568.32 217.34L484.34 217.34L484.34 231.17ZM365.83 231.17C365.83 254.33 384.66 273.17 407.82 273.17C430.98 273.17 449.81 254.33 449.81 231.17L449.81 217.34L365.83 217.34L365.83 231.17ZM247.32 231.17C247.32 254.33 266.15 273.17 289.3 273.17C312.47 273.17 331.3 254.33 331.3 231.17L331.3 217.34L247.32 217.34L247.32 231.17ZM170.8 307.69C164.32 307.69 158.03 306.88 152.01 305.35L152.01 436.06L672.69 436.06L672.69 302.42C664.06 305.81 654.67 307.69 644.85 307.69C620.98 307.69 599.63 296.7 585.59 279.52C571.55 296.7 550.2 307.69 526.33 307.69C502.47 307.69 481.12 296.7 467.08 279.52C453.04 296.7 431.69 307.69 407.82 307.69C383.95 307.69 362.61 296.7 348.57 279.52C334.52 296.7 313.18 307.69 289.31 307.69C265.44 307.69 244.09 296.7 230.06 279.52C216.01 296.7 194.67 307.69 170.8 307.69ZM128.81 231.17C128.81 254.33 147.64 273.17 170.8 273.17C193.96 273.17 212.79 254.33 212.79 231.17L212.79 217.34L128.81 217.34L128.81 231.17ZM128.62 497.25L695.6 497.25L695.6 470.58L128.62 470.58L128.62 497.25Z" />
	<path id="Layer" fill-rule="evenodd" class="shp1" d="M1213.34 424.17C1221.38 430.75 1225.99 440.49 1226 450.87L1226 623.63C1226 649.28 1205.12 670.16 1179.47 670.16L1139.49 670.16C1137.33 694.03 1127.15 717.31 1108.91 735.55C1088.23 756.22 1061.07 766.56 1033.9 766.56C1006.73 766.56 979.57 756.22 958.89 735.55C940.65 717.31 930.47 694.03 928.32 670.16L343.67 670.16C341.52 694.03 331.34 717.31 313.1 735.55C292.42 756.22 265.26 766.56 238.09 766.56C210.92 766.56 183.76 756.22 163.08 735.55C144.85 717.31 134.66 694.03 132.51 670.16L95.87 670.16C68.37 670.16 46 647.78 46 620.28L46 50.41C46 22.91 68.37 0.53 95.87 0.53L866.61 0.53C882.89 0.53 897.49 11.44 902.09 27.07L922.02 94.22C924.73 103.36 919.51 112.96 910.38 115.68C901.24 118.4 891.63 113.18 888.92 104.04L868.99 36.86C868.67 35.78 867.7 35.05 866.61 35.05L95.87 35.05C87.41 35.05 80.53 41.94 80.53 50.41L80.53 620.28C80.53 628.75 87.41 635.63 95.87 635.63L135.01 635.63C139.42 617.26 148.76 599.84 163.08 585.53C204.45 544.16 271.74 544.16 313.1 585.53C327.41 599.83 336.77 617.26 341.17 635.63L744.64 635.63L744.64 193.15C744.64 174.64 759.71 159.57 778.22 159.57L994.53 159.57C1007.02 159.57 1018.99 165.5 1026.57 175.44C1027.03 176.05 1027.46 176.69 1027.83 177.36L1129.02 355.11L1213.34 424.17ZM309.65 660.54C309.65 641.42 302.21 623.45 288.69 609.93C275.17 596.42 257.2 588.97 238.09 588.97C218.98 588.97 201.01 596.42 187.49 609.93C159.6 637.83 159.6 683.23 187.49 711.13C215.39 739.03 260.79 739.03 288.69 711.13C302.21 697.62 309.65 679.65 309.65 660.54ZM1084.5 711.13C1112.4 683.23 1112.4 637.83 1084.5 609.93C1070.55 595.99 1052.22 589.01 1033.9 589.01C1015.57 589.01 997.25 595.99 983.3 609.93C955.4 637.83 955.4 683.23 983.3 711.13C1011.21 739.03 1056.6 739.03 1084.5 711.13ZM1191.47 450.87L1104.67 379.79C1103.03 378.45 1101.66 376.82 1100.61 374.98L998.6 195.78C997.53 194.71 996.06 194.09 994.53 194.09L779.17 194.09L779.17 635.63L930.82 635.63C935.22 617.26 944.58 599.84 958.89 585.53C1000.26 544.16 1067.55 544.16 1108.91 585.53C1123.23 599.83 1132.58 617.26 1136.98 635.63L1179.47 635.63C1186.08 635.63 1191.47 630.25 1191.47 623.63L1191.47 573.03L1153.63 573.03C1137.15 573.03 1123.06 561.82 1119.35 545.77L1110.99 509.7C1108.56 499.18 1111.01 488.32 1117.73 479.86C1124.44 471.42 1134.49 466.57 1145.28 466.57L1191.47 466.57L1191.47 450.87ZM1191.47 501.09L1145.27 501.09C1145.15 501.09 1144.96 501.09 1144.75 501.35C1144.55 501.59 1144.59 501.78 1144.63 501.92L1152.97 537.98C1153.04 538.3 1153.31 538.51 1153.63 538.51L1191.47 538.51L1191.47 501.09Z" />
	<path id="Layer" fill-rule="evenodd" class="shp1" d="M1073.24 621.19C1083.75 631.71 1089.54 645.67 1089.54 660.54C1089.54 675.4 1083.75 689.37 1073.24 699.88C1062.74 710.38 1048.77 716.17 1033.9 716.17C1019.04 716.17 1005.07 710.38 994.56 699.87C984.06 689.38 978.28 675.41 978.28 660.54C978.28 645.66 984.06 631.69 994.56 621.19C1005.07 610.69 1019.04 604.9 1033.9 604.9C1048.76 604.9 1062.73 610.68 1073.24 621.19ZM1055.01 660.54C1055.01 654.89 1052.82 649.59 1048.83 645.6C1044.84 641.62 1039.54 639.42 1033.9 639.42C1028.27 639.42 1022.96 641.62 1018.98 645.6C1015 649.58 1012.81 654.88 1012.81 660.54C1012.81 666.18 1015 671.48 1018.98 675.46C1022.96 679.45 1028.26 681.65 1033.9 681.65C1039.54 681.65 1044.84 679.45 1048.83 675.46C1052.82 671.47 1055.01 666.17 1055.01 660.54Z" />
	<path id="Layer" fill-rule="evenodd" class="shp1" d="M277.43 621.19C287.94 631.7 293.73 645.67 293.73 660.54C293.73 675.4 287.94 689.37 277.42 699.88C266.92 710.38 252.95 716.17 238.09 716.17C223.23 716.17 209.26 710.38 198.75 699.88C188.25 689.38 182.47 675.41 182.47 660.54C182.47 645.66 188.25 631.69 198.75 621.19C209.26 610.69 223.23 604.9 238.09 604.9C252.95 604.9 266.92 610.68 277.43 621.19ZM253.02 675.46C257 671.47 259.2 666.17 259.2 660.54C259.2 654.89 257 649.59 253.02 645.6C249.03 641.62 243.73 639.42 238.09 639.42C232.45 639.42 227.15 641.62 223.16 645.61C219.18 649.58 217 654.88 217 660.54C217 666.18 219.18 671.48 223.16 675.46C227.15 679.45 232.45 681.65 238.09 681.65C243.73 681.65 249.03 679.45 253.02 675.46Z" />
	<path id="Layer" fill-rule="evenodd" class="shp1" d="M1049.82 349.67C1056.32 361.08 1056.26 374.67 1049.66 386.02C1043.05 397.37 1031.27 404.15 1018.14 404.15L824.47 404.15C812.31 404.15 802.43 394.27 802.43 382.11L802.43 248.33C802.43 236.18 812.31 226.29 824.47 226.29L966.78 226.29C974.68 226.29 982.02 230.56 985.94 237.43L1049.82 349.67ZM1019.82 366.74L959.52 260.81L836.94 260.81L836.94 369.63L1018.14 369.63C1018.44 369.63 1019.25 369.63 1019.81 368.67C1020.37 367.71 1019.98 367.01 1019.82 366.74Z" />
</svg>